<svg xmlns="http://www.w3.org/2000/svg" width="240" height="240" viewBox="0 0 240 240"><g opacity=".1"><g transform="translate(40 46) scale(0.7) rotate(11.3)"><ellipse rx="15" ry="12" fill="#f76707"/><ellipse cx="-7" rx="6" ry="12" fill="#000" fill-opacity=".12"/><ellipse cx="7" rx="6" ry="12" fill="#000" fill-opacity=".12"/><rect x="-2" y="-16" width="4" height="6" rx="1.5" fill="#2f9e44"/><polygon points="-7,-3 -3,-3 -5,-7" fill="#2b2b2b"/><polygon points="3,-3 7,-3 5,-7" fill="#2b2b2b"/><path d="M-6 4Q0 9 6 4" stroke="#2b2b2b" stroke-width="2" fill="none"/></g><g transform="translate(150 30) scale(0.7) rotate(14.7)"><path d="M0 -4C4 -12 10 -12 18 -8C14 -6 14 -1 10 0C8 -2 4 -2 0 2C-4 -2 -8 -2 -10 0C-14 -1 -14 -6 -18 -8C-10 -12 -4 -12 0 -4Z" fill="#7048e8"/></g><g transform="translate(210 120) scale(0.5) rotate(-24.2)"><polygon points="0,-12 3.2,-4.4 11.4,-3.7 5.1,1.7 7.1,9.7 0,5.4 -7.1,9.7 -5.1,1.7 -11.4,-3.7 -3.2,-4.4" fill="#ffd43b"/></g><g transform="translate(90 150) scale(0.7) rotate(-10.7)"><ellipse rx="15" ry="12" fill="#f76707"/><ellipse cx="-7" rx="6" ry="12" fill="#000" fill-opacity=".12"/><ellipse cx="7" rx="6" ry="12" fill="#000" fill-opacity=".12"/><rect x="-2" y="-16" width="4" height="6" rx="1.5" fill="#2f9e44"/><polygon points="-7,-3 -3,-3 -5,-7" fill="#2b2b2b"/><polygon points="3,-3 7,-3 5,-7" fill="#2b2b2b"/><path d="M-6 4Q0 9 6 4" stroke="#2b2b2b" stroke-width="2" fill="none"/></g><g transform="translate(170 205) scale(0.7) rotate(-18)"><path d="M0 -4C4 -12 10 -12 18 -8C14 -6 14 -1 10 0C8 -2 4 -2 0 2C-4 -2 -8 -2 -10 0C-14 -1 -14 -6 -18 -8C-10 -12 -4 -12 0 -4Z" fill="#7048e8"/></g><g transform="translate(28 226) scale(0.7) rotate(9.1)"><polygon points="0,-12 3.2,-4.4 11.4,-3.7 5.1,1.7 7.1,9.7 0,5.4 -7.1,9.7 -5.1,1.7 -11.4,-3.7 -3.2,-4.4" fill="#ffd43b"/></g></g></svg>