<svg xmlns="http://www.w3.org/2000/svg" viewBox="0 0 800 56" preserveAspectRatio="xMaxYMax meet"><path d="M0 54H800" stroke="#2f9e44" stroke-opacity=".55" stroke-width="3"/><g transform="translate(741.9 36) scale(1.2)"><polygon points="0,-15 16,11 -16,11" fill="#f59f00" stroke="#f59f00" stroke-linejoin="round" stroke-width="3"/><path d="M-9 4H9M-5 -4H5" stroke="#f4d58d" stroke-width="2"/><path d="M0 11v9" stroke="#f4d58d" stroke-width="2"/></g><g transform="translate(663.3 36) scale(1.1)"><ellipse cx="0" cy="-8" rx="5" ry="11" fill="#4dabf7"/><path d="M0 -17V2" stroke="#fff" stroke-opacity=".4"/></g><g transform="translate(571.6 36) scale(1.1)"><path d="M-20 0Q-15 -8 -10 0T0 0T10 0T20 0" stroke="#2f9e44" stroke-width="3" fill="none" stroke-linecap="round"/><path d="M-20 8Q-15 0 -10 8T0 8T10 8T20 8" stroke="#2f9e44" stroke-opacity=".6" stroke-width="3" fill="none" stroke-linecap="round"/></g><g transform="translate(491.5 36) scale(1.2)"><polygon points="0,-15 16,11 -16,11" fill="#8ce99a" stroke="#8ce99a" stroke-linejoin="round" stroke-width="3"/><path d="M-9 4H9M-5 -4H5" stroke="#f4d58d" stroke-width="2"/><path d="M0 11v9" stroke="#f4d58d" stroke-width="2"/></g><g transform="translate(403.8 36) scale(1)"><ellipse cx="0" cy="-8" rx="5" ry="11" fill="#f59f00"/><path d="M0 -17V2" stroke="#fff" stroke-opacity=".4"/></g><g transform="translate(311.1 36) scale(1.2)"><path d="M-20 0Q-15 -8 -10 0T0 0T10 0T20 0" stroke="#4dabf7" stroke-width="3" fill="none" stroke-linecap="round"/><path d="M-20 8Q-15 0 -10 8T0 8T10 8T20 8" stroke="#4dabf7" stroke-opacity=".6" stroke-width="3" fill="none" stroke-linecap="round"/></g><g transform="translate(230 36) scale(1.1)"><polygon points="0,-15 16,11 -16,11" fill="#2f9e44" stroke="#2f9e44" stroke-linejoin="round" stroke-width="3"/><path d="M-9 4H9M-5 -4H5" stroke="#f4d58d" stroke-width="2"/><path d="M0 11v9" stroke="#f4d58d" stroke-width="2"/></g><g transform="translate(146.1 36) scale(1)"><ellipse cx="0" cy="-8" rx="5" ry="11" fill="#8ce99a"/><path d="M0 -17V2" stroke="#fff" stroke-opacity=".4"/></g></svg>