<svg xmlns="http://www.w3.org/2000/svg" width="240" height="240" viewBox="0 0 240 240"><g opacity=".1"><g transform="translate(40 46) scale(0.7) rotate(-20.9)"><rect x="-1" y="-23" width="2" height="7" fill="#b8860b"/><ellipse cx="0" cy="-2" rx="14" ry="16" fill="#e8590c"/><path d="M-7 -16Q-14 -2 -7 14M7 -16Q14 -2 7 14" stroke="#fff" stroke-opacity=".35" fill="none" stroke-width="1.5"/><rect x="-6" y="-19" width="12" height="4" rx="1" fill="#f4c542"/><rect x="-6" y="13" width="12" height="4" rx="1" fill="#f4c542"/><path d="M0 17v13" stroke="#f4c542" stroke-width="2"/><circle cx="0" cy="31" r="2" fill="#f4c542"/></g><g transform="translate(150 30) scale(0.8) rotate(12.2)"><rect x="-1" y="-23" width="2" height="7" fill="#b8860b"/><ellipse cx="0" cy="-2" rx="14" ry="16" fill="#f59f00"/><path d="M-7 -16Q-14 -2 -7 14M7 -16Q14 -2 7 14" stroke="#fff" stroke-opacity=".35" fill="none" stroke-width="1.5"/><rect x="-6" y="-19" width="12" height="4" rx="1" fill="#f4c542"/><rect x="-6" y="13" width="12" height="4" rx="1" fill="#f4c542"/><path d="M0 17v13" stroke="#f4c542" stroke-width="2"/><circle cx="0" cy="31" r="2" fill="#f4c542"/></g><g transform="translate(210 120) scale(0.8) rotate(1.6)"><polygon points="0,-12 3.2,-4.4 11.4,-3.7 5.1,1.7 7.1,9.7 0,5.4 -7.1,9.7 -5.1,1.7 -11.4,-3.7 -3.2,-4.4" fill="#e64980"/></g><g transform="translate(90 150) scale(0.6) rotate(4.5)"><rect x="-1" y="-23" width="2" height="7" fill="#b8860b"/><ellipse cx="0" cy="-2" rx="14" ry="16" fill="#7048e8"/><path d="M-7 -16Q-14 -2 -7 14M7 -16Q14 -2 7 14" stroke="#fff" stroke-opacity=".35" fill="none" stroke-width="1.5"/><rect x="-6" y="-19" width="12" height="4" rx="1" fill="#f4c542"/><rect x="-6" y="13" width="12" height="4" rx="1" fill="#f4c542"/><path d="M0 17v13" stroke="#f4c542" stroke-width="2"/><circle cx="0" cy="31" r="2" fill="#f4c542"/></g><g transform="translate(170 205) scale(0.6) rotate(-16.3)"><rect x="-1" y="-23" width="2" height="7" fill="#b8860b"/><ellipse cx="0" cy="-2" rx="14" ry="16" fill="#e8590c"/><path d="M-7 -16Q-14 -2 -7 14M7 -16Q14 -2 7 14" stroke="#fff" stroke-opacity=".35" fill="none" stroke-width="1.5"/><rect x="-6" y="-19" width="12" height="4" rx="1" fill="#f4c542"/><rect x="-6" y="13" width="12" height="4" rx="1" fill="#f4c542"/><path d="M0 17v13" stroke="#f4c542" stroke-width="2"/><circle cx="0" cy="31" r="2" fill="#f4c542"/></g><g transform="translate(28 226) scale(0.6) rotate(-16.2)"><polygon points="0,-12 3.2,-4.4 11.4,-3.7 5.1,1.7 7.1,9.7 0,5.4 -7.1,9.7 -5.1,1.7 -11.4,-3.7 -3.2,-4.4" fill="#f59f00"/></g></g></svg>