<svg xmlns="http://www.w3.org/2000/svg" viewBox="0 0 800 56" preserveAspectRatio="xMaxYMax meet"><path d="M0 54H800" stroke="#e8590c" stroke-opacity=".55" stroke-width="3"/><g transform="translate(745.4 36) scale(1)"><rect x="-1" y="-23" width="2" height="7" fill="#b8860b"/><ellipse cx="0" cy="-2" rx="14" ry="16" fill="#e64980"/><path d="M-7 -16Q-14 -2 -7 14M7 -16Q14 -2 7 14" stroke="#fff" stroke-opacity=".35" fill="none" stroke-width="1.5"/><rect x="-6" y="-19" width="12" height="4" rx="1" fill="#f4c542"/><rect x="-6" y="13" width="12" height="4" rx="1" fill="#f4c542"/><path d="M0 17v13" stroke="#f4c542" stroke-width="2"/><circle cx="0" cy="31" r="2" fill="#f4c542"/></g><g transform="translate(660.1 36) scale(1.1)"><rect x="-1" y="-23" width="2" height="7" fill="#b8860b"/><ellipse cx="0" cy="-2" rx="14" ry="16" fill="#7048e8"/><path d="M-7 -16Q-14 -2 -7 14M7 -16Q14 -2 7 14" stroke="#fff" stroke-opacity=".35" fill="none" stroke-width="1.5"/><rect x="-6" y="-19" width="12" height="4" rx="1" fill="#f4c542"/><rect x="-6" y="13" width="12" height="4" rx="1" fill="#f4c542"/><path d="M0 17v13" stroke="#f4c542" stroke-width="2"/><circle cx="0" cy="31" r="2" fill="#f4c542"/></g><g transform="translate(566.8 36) scale(1.1)"><polygon points="0,-12 3.2,-4.4 11.4,-3.7 5.1,1.7 7.1,9.7 0,5.4 -7.1,9.7 -5.1,1.7 -11.4,-3.7 -3.2,-4.4" fill="#e8590c"/></g><g transform="translate(483.3 36) scale(1.1)"><rect x="-1" y="-23" width="2" height="7" fill="#b8860b"/><ellipse cx="0" cy="-2" rx="14" ry="16" fill="#f59f00"/><path d="M-7 -16Q-14 -2 -7 14M7 -16Q14 -2 7 14" stroke="#fff" stroke-opacity=".35" fill="none" stroke-width="1.5"/><rect x="-6" y="-19" width="12" height="4" rx="1" fill="#f4c542"/><rect x="-6" y="13" width="12" height="4" rx="1" fill="#f4c542"/><path d="M0 17v13" stroke="#f4c542" stroke-width="2"/><circle cx="0" cy="31" r="2" fill="#f4c542"/></g><g transform="translate(404.8 36) scale(1.2)"><rect x="-1" y="-23" width="2" height="7" fill="#b8860b"/><ellipse cx="0" cy="-2" rx="14" ry="16" fill="#e64980"/><path d="M-7 -16Q-14 -2 -7 14M7 -16Q14 -2 7 14" stroke="#fff" stroke-opacity=".35" fill="none" stroke-width="1.5"/><rect x="-6" y="-19" width="12" height="4" rx="1" fill="#f4c542"/><rect x="-6" y="13" width="12" height="4" rx="1" fill="#f4c542"/><path d="M0 17v13" stroke="#f4c542" stroke-width="2"/><circle cx="0" cy="31" r="2" fill="#f4c542"/></g><g transform="translate(309 36) scale(1.2)"><polygon points="0,-12 3.2,-4.4 11.4,-3.7 5.1,1.7 7.1,9.7 0,5.4 -7.1,9.7 -5.1,1.7 -11.4,-3.7 -3.2,-4.4" fill="#7048e8"/></g><g transform="translate(226.4 36) scale(1.2)"><rect x="-1" y="-23" width="2" height="7" fill="#b8860b"/><ellipse cx="0" cy="-2" rx="14" ry="16" fill="#e8590c"/><path d="M-7 -16Q-14 -2 -7 14M7 -16Q14 -2 7 14" stroke="#fff" stroke-opacity=".35" fill="none" stroke-width="1.5"/><rect x="-6" y="-19" width="12" height="4" rx="1" fill="#f4c542"/><rect x="-6" y="13" width="12" height="4" rx="1" fill="#f4c542"/><path d="M0 17v13" stroke="#f4c542" stroke-width="2"/><circle cx="0" cy="31" r="2" fill="#f4c542"/></g><g transform="translate(143 36) scale(1)"><rect x="-1" y="-23" width="2" height="7" fill="#b8860b"/><ellipse cx="0" cy="-2" rx="14" ry="16" fill="#f59f00"/><path d="M-7 -16Q-14 -2 -7 14M7 -16Q14 -2 7 14" stroke="#fff" stroke-opacity=".35" fill="none" stroke-width="1.5"/><rect x="-6" y="-19" width="12" height="4" rx="1" fill="#f4c542"/><rect x="-6" y="13" width="12" height="4" rx="1" fill="#f4c542"/><path d="M0 17v13" stroke="#f4c542" stroke-width="2"/><circle cx="0" cy="31" r="2" fill="#f4c542"/></g></svg>