<svg xmlns="http://www.w3.org/2000/svg" viewBox="0 0 1200 120" preserveAspectRatio="xMaxYMin meet"><line x1="1060" y1="0" x2="1060" y2="7" stroke="#e9c46a" stroke-width="1.6" stroke-opacity=".85"/><g transform="translate(1060 19.3) scale(1.2)"><path d="M-14 -9H-1V10H-14Z M14 -9H1V10H14Z" fill="#f59f00"/><path d="M-1 -9Q0 -11 1 -9V10Q0 8 -1 10Z" fill="#fff" fill-opacity=".5"/></g><line x1="960" y1="0" x2="960" y2="8" stroke="#e9c46a" stroke-width="1.6" stroke-opacity=".85"/><g transform="translate(960 19.9) scale(1)"><polygon points="0,-12 3.2,-4.4 11.4,-3.7 5.1,1.7 7.1,9.7 0,5.4 -7.1,9.7 -5.1,1.7 -11.4,-3.7 -3.2,-4.4" fill="#1c7ed6"/></g><line x1="860" y1="0" x2="860" y2="11" stroke="#e9c46a" stroke-width="1.6" stroke-opacity=".85"/><g transform="translate(860 25.5) scale(1)"><ellipse cx="0" cy="-9" rx="6" ry="9" fill="#2f9e44" transform="rotate(0)"/><ellipse cx="0" cy="-9" rx="6" ry="9" fill="#2f9e44" transform="rotate(72)"/><ellipse cx="0" cy="-9" rx="6" ry="9" fill="#2f9e44" transform="rotate(144)"/><ellipse cx="0" cy="-9" rx="6" ry="9" fill="#2f9e44" transform="rotate(216)"/><ellipse cx="0" cy="-9" rx="6" ry="9" fill="#2f9e44" transform="rotate(288)"/><circle r="4.5" fill="#ffe066"/></g></svg>