<svg xmlns="http://www.w3.org/2000/svg" viewBox="0 0 800 56" preserveAspectRatio="xMaxYMax meet"><path d="M0 54H800" stroke="#e64980" stroke-opacity=".55" stroke-width="3"/><g transform="translate(749.1 36) scale(1)"><ellipse cx="0" cy="-9" rx="6" ry="9" fill="#ffc9de" transform="rotate(0)"/><ellipse cx="0" cy="-9" rx="6" ry="9" fill="#ffc9de" transform="rotate(72)"/><ellipse cx="0" cy="-9" rx="6" ry="9" fill="#ffc9de" transform="rotate(144)"/><ellipse cx="0" cy="-9" rx="6" ry="9" fill="#ffc9de" transform="rotate(216)"/><ellipse cx="0" cy="-9" rx="6" ry="9" fill="#ffc9de" transform="rotate(288)"/><circle r="4.5" fill="#ffe066"/></g><g transform="translate(658.9 36) scale(1)"><path d="M0 12C-22 -4 -10 -20 0 -8C10 -20 22 -4 0 12Z" fill="#ff8fab"/></g><g transform="translate(576.2 36) scale(1.1)"><ellipse cx="0" cy="-9" rx="6" ry="9" fill="#f06595" transform="rotate(0)"/><ellipse cx="0" cy="-9" rx="6" ry="9" fill="#f06595" transform="rotate(72)"/><ellipse cx="0" cy="-9" rx="6" ry="9" fill="#f06595" transform="rotate(144)"/><ellipse cx="0" cy="-9" rx="6" ry="9" fill="#f06595" transform="rotate(216)"/><ellipse cx="0" cy="-9" rx="6" ry="9" fill="#f06595" transform="rotate(288)"/><circle r="4.5" fill="#ffe066"/></g><g transform="translate(482.4 36) scale(1)"><ellipse cx="0" cy="-9" rx="6" ry="9" fill="#ffc9de" transform="rotate(0)"/><ellipse cx="0" cy="-9" rx="6" ry="9" fill="#ffc9de" transform="rotate(72)"/><ellipse cx="0" cy="-9" rx="6" ry="9" fill="#ffc9de" transform="rotate(144)"/><ellipse cx="0" cy="-9" rx="6" ry="9" fill="#ffc9de" transform="rotate(216)"/><ellipse cx="0" cy="-9" rx="6" ry="9" fill="#ffc9de" transform="rotate(288)"/><circle r="4.5" fill="#ffe066"/></g><g transform="translate(402.6 36) scale(1)"><path d="M0 12C-22 -4 -10 -20 0 -8C10 -20 22 -4 0 12Z" fill="#ff8fab"/></g><g transform="translate(311.3 36) scale(1.2)"><ellipse cx="0" cy="-9" rx="6" ry="9" fill="#f06595" transform="rotate(0)"/><ellipse cx="0" cy="-9" rx="6" ry="9" fill="#f06595" transform="rotate(72)"/><ellipse cx="0" cy="-9" rx="6" ry="9" fill="#f06595" transform="rotate(144)"/><ellipse cx="0" cy="-9" rx="6" ry="9" fill="#f06595" transform="rotate(216)"/><ellipse cx="0" cy="-9" rx="6" ry="9" fill="#f06595" transform="rotate(288)"/><circle r="4.5" fill="#ffe066"/></g><g transform="translate(226.6 36) scale(1)"><ellipse cx="0" cy="-9" rx="6" ry="9" fill="#ffc9de" transform="rotate(0)"/><ellipse cx="0" cy="-9" rx="6" ry="9" fill="#ffc9de" transform="rotate(72)"/><ellipse cx="0" cy="-9" rx="6" ry="9" fill="#ffc9de" transform="rotate(144)"/><ellipse cx="0" cy="-9" rx="6" ry="9" fill="#ffc9de" transform="rotate(216)"/><ellipse cx="0" cy="-9" rx="6" ry="9" fill="#ffc9de" transform="rotate(288)"/><circle r="4.5" fill="#ffe066"/></g><g transform="translate(142.2 36) scale(1)"><path d="M0 12C-22 -4 -10 -20 0 -8C10 -20 22 -4 0 12Z" fill="#ff8fab"/></g></svg>