<svg xmlns="http://www.w3.org/2000/svg" viewBox="0 0 1200 120" preserveAspectRatio="xMaxYMin meet"><g transform="translate(751.4 53.6) scale(1.1) rotate(24.4)" opacity="0.9"><g stroke="#f6c343" stroke-width="2" stroke-linecap="round"><line x1="5" y1="0" x2="15" y2="0"/><circle cx="18" cy="0" r="1.6" stroke="none" fill="#f6c343"/><line x1="4.3" y1="2.5" x2="13" y2="7.5"/><circle cx="15.6" cy="9" r="1.6" stroke="none" fill="#f6c343"/><line x1="2.5" y1="4.3" x2="7.5" y2="13"/><circle cx="9" cy="15.6" r="1.6" stroke="none" fill="#f6c343"/><line x1="0" y1="5" x2="0" y2="15"/><circle cx="0" cy="18" r="1.6" stroke="none" fill="#f6c343"/><line x1="-2.5" y1="4.3" x2="-7.5" y2="13"/><circle cx="-9" cy="15.6" r="1.6" stroke="none" fill="#f6c343"/><line x1="-4.3" y1="2.5" x2="-13" y2="7.5"/><circle cx="-15.6" cy="9" r="1.6" stroke="none" fill="#f6c343"/><line x1="-5" y1="0" x2="-15" y2="0"/><circle cx="-18" cy="0" r="1.6" stroke="none" fill="#f6c343"/><line x1="-4.3" y1="-2.5" x2="-13" y2="-7.5"/><circle cx="-15.6" cy="-9" r="1.6" stroke="none" fill="#f6c343"/><line x1="-2.5" y1="-4.3" x2="-7.5" y2="-13"/><circle cx="-9" cy="-15.6" r="1.6" stroke="none" fill="#f6c343"/><line x1="-0" y1="-5" x2="-0" y2="-15"/><circle cx="-0" cy="-18" r="1.6" stroke="none" fill="#f6c343"/><line x1="2.5" y1="-4.3" x2="7.5" y2="-13"/><circle cx="9" cy="-15.6" r="1.6" stroke="none" fill="#f6c343"/><line x1="4.3" y1="-2.5" x2="13" y2="-7.5"/><circle cx="15.6" cy="-9" r="1.6" stroke="none" fill="#f6c343"/></g></g><g transform="translate(905.8 33.1) scale(1.3) rotate(10.1)" opacity="0.9"><g stroke="#ff6b6b" stroke-width="2" stroke-linecap="round"><line x1="5" y1="0" x2="15" y2="0"/><circle cx="18" cy="0" r="1.6" stroke="none" fill="#ff6b6b"/><line x1="4.3" y1="2.5" x2="13" y2="7.5"/><circle cx="15.6" cy="9" r="1.6" stroke="none" fill="#ff6b6b"/><line x1="2.5" y1="4.3" x2="7.5" y2="13"/><circle cx="9" cy="15.6" r="1.6" stroke="none" fill="#ff6b6b"/><line x1="0" y1="5" x2="0" y2="15"/><circle cx="0" cy="18" r="1.6" stroke="none" fill="#ff6b6b"/><line x1="-2.5" y1="4.3" x2="-7.5" y2="13"/><circle cx="-9" cy="15.6" r="1.6" stroke="none" fill="#ff6b6b"/><line x1="-4.3" y1="2.5" x2="-13" y2="7.5"/><circle cx="-15.6" cy="9" r="1.6" stroke="none" fill="#ff6b6b"/><line x1="-5" y1="0" x2="-15" y2="0"/><circle cx="-18" cy="0" r="1.6" stroke="none" fill="#ff6b6b"/><line x1="-4.3" y1="-2.5" x2="-13" y2="-7.5"/><circle cx="-15.6" cy="-9" r="1.6" stroke="none" fill="#ff6b6b"/><line x1="-2.5" y1="-4.3" x2="-7.5" y2="-13"/><circle cx="-9" cy="-15.6" r="1.6" stroke="none" fill="#ff6b6b"/><line x1="-0" y1="-5" x2="-0" y2="-15"/><circle cx="-0" cy="-18" r="1.6" stroke="none" fill="#ff6b6b"/><line x1="2.5" y1="-4.3" x2="7.5" y2="-13"/><circle cx="9" cy="-15.6" r="1.6" stroke="none" fill="#ff6b6b"/><line x1="4.3" y1="-2.5" x2="13" y2="-7.5"/><circle cx="15.6" cy="-9" r="1.6" stroke="none" fill="#ff6b6b"/></g></g><g transform="translate(693.8 29.1) scale(1.7) rotate(25.6)" opacity="0.9"><g stroke="#63b3ed" stroke-width="2" stroke-linecap="round"><line x1="5" y1="0" x2="15" y2="0"/><circle cx="18" cy="0" r="1.6" stroke="none" fill="#63b3ed"/><line x1="4.3" y1="2.5" x2="13" y2="7.5"/><circle cx="15.6" cy="9" r="1.6" stroke="none" fill="#63b3ed"/><line x1="2.5" y1="4.3" x2="7.5" y2="13"/><circle cx="9" cy="15.6" r="1.6" stroke="none" fill="#63b3ed"/><line x1="0" y1="5" x2="0" y2="15"/><circle cx="0" cy="18" r="1.6" stroke="none" fill="#63b3ed"/><line x1="-2.5" y1="4.3" x2="-7.5" y2="13"/><circle cx="-9" cy="15.6" r="1.6" stroke="none" fill="#63b3ed"/><line x1="-4.3" y1="2.5" x2="-13" y2="7.5"/><circle cx="-15.6" cy="9" r="1.6" stroke="none" fill="#63b3ed"/><line x1="-5" y1="0" x2="-15" y2="0"/><circle cx="-18" cy="0" r="1.6" stroke="none" fill="#63b3ed"/><line x1="-4.3" y1="-2.5" x2="-13" y2="-7.5"/><circle cx="-15.6" cy="-9" r="1.6" stroke="none" fill="#63b3ed"/><line x1="-2.5" y1="-4.3" x2="-7.5" y2="-13"/><circle cx="-9" cy="-15.6" r="1.6" stroke="none" fill="#63b3ed"/><line x1="-0" y1="-5" x2="-0" y2="-15"/><circle cx="-0" cy="-18" r="1.6" stroke="none" fill="#63b3ed"/><line x1="2.5" y1="-4.3" x2="7.5" y2="-13"/><circle cx="9" cy="-15.6" r="1.6" stroke="none" fill="#63b3ed"/><line x1="4.3" y1="-2.5" x2="13" y2="-7.5"/><circle cx="15.6" cy="-9" r="1.6" stroke="none" fill="#63b3ed"/></g></g><g transform="translate(730.6 58.3) scale(1.3) rotate(12.1)" opacity="0.9"><g stroke="#1c4fa1" stroke-width="2" stroke-linecap="round"><line x1="5" y1="0" x2="15" y2="0"/><circle cx="18" cy="0" r="1.6" stroke="none" fill="#1c4fa1"/><line x1="4.3" y1="2.5" x2="13" y2="7.5"/><circle cx="15.6" cy="9" r="1.6" stroke="none" fill="#1c4fa1"/><line x1="2.5" y1="4.3" x2="7.5" y2="13"/><circle cx="9" cy="15.6" r="1.6" stroke="none" fill="#1c4fa1"/><line x1="0" y1="5" x2="0" y2="15"/><circle cx="0" cy="18" r="1.6" stroke="none" fill="#1c4fa1"/><line x1="-2.5" y1="4.3" x2="-7.5" y2="13"/><circle cx="-9" cy="15.6" r="1.6" stroke="none" fill="#1c4fa1"/><line x1="-4.3" y1="2.5" x2="-13" y2="7.5"/><circle cx="-15.6" cy="9" r="1.6" stroke="none" fill="#1c4fa1"/><line x1="-5" y1="0" x2="-15" y2="0"/><circle cx="-18" cy="0" r="1.6" stroke="none" fill="#1c4fa1"/><line x1="-4.3" y1="-2.5" x2="-13" y2="-7.5"/><circle cx="-15.6" cy="-9" r="1.6" stroke="none" fill="#1c4fa1"/><line x1="-2.5" y1="-4.3" x2="-7.5" y2="-13"/><circle cx="-9" cy="-15.6" r="1.6" stroke="none" fill="#1c4fa1"/><line x1="-0" y1="-5" x2="-0" y2="-15"/><circle cx="-0" cy="-18" r="1.6" stroke="none" fill="#1c4fa1"/><line x1="2.5" y1="-4.3" x2="7.5" y2="-13"/><circle cx="9" cy="-15.6" r="1.6" stroke="none" fill="#1c4fa1"/><line x1="4.3" y1="-2.5" x2="13" y2="-7.5"/><circle cx="15.6" cy="-9" r="1.6" stroke="none" fill="#1c4fa1"/></g></g><g transform="translate(620.7 49.6) scale(1) rotate(22.2)" opacity="0.9"><g stroke="#f6c343" stroke-width="2" stroke-linecap="round"><line x1="5" y1="0" x2="15" y2="0"/><circle cx="18" cy="0" r="1.6" stroke="none" fill="#f6c343"/><line x1="4.3" y1="2.5" x2="13" y2="7.5"/><circle cx="15.6" cy="9" r="1.6" stroke="none" fill="#f6c343"/><line x1="2.5" y1="4.3" x2="7.5" y2="13"/><circle cx="9" cy="15.6" r="1.6" stroke="none" fill="#f6c343"/><line x1="0" y1="5" x2="0" y2="15"/><circle cx="0" cy="18" r="1.6" stroke="none" fill="#f6c343"/><line x1="-2.5" y1="4.3" x2="-7.5" y2="13"/><circle cx="-9" cy="15.6" r="1.6" stroke="none" fill="#f6c343"/><line x1="-4.3" y1="2.5" x2="-13" y2="7.5"/><circle cx="-15.6" cy="9" r="1.6" stroke="none" fill="#f6c343"/><line x1="-5" y1="0" x2="-15" y2="0"/><circle cx="-18" cy="0" r="1.6" stroke="none" fill="#f6c343"/><line x1="-4.3" y1="-2.5" x2="-13" y2="-7.5"/><circle cx="-15.6" cy="-9" r="1.6" stroke="none" fill="#f6c343"/><line x1="-2.5" y1="-4.3" x2="-7.5" y2="-13"/><circle cx="-9" cy="-15.6" r="1.6" stroke="none" fill="#f6c343"/><line x1="-0" y1="-5" x2="-0" y2="-15"/><circle cx="-0" cy="-18" r="1.6" stroke="none" fill="#f6c343"/><line x1="2.5" y1="-4.3" x2="7.5" y2="-13"/><circle cx="9" cy="-15.6" r="1.6" stroke="none" fill="#f6c343"/><line x1="4.3" y1="-2.5" x2="13" y2="-7.5"/><circle cx="15.6" cy="-9" r="1.6" stroke="none" fill="#f6c343"/></g></g><g transform="translate(1130 44) scale(1.1)" opacity="0.8"><polygon points="-2.6,-8 2.6,-8 0,-17" fill="#e9ecef" transform="rotate(0)"/><polygon points="-2.6,-8 2.6,-8 0,-17" fill="#e9ecef" transform="rotate(30)"/><polygon points="-2.6,-8 2.6,-8 0,-17" fill="#e9ecef" transform="rotate(60)"/><polygon points="-2.6,-8 2.6,-8 0,-17" fill="#e9ecef" transform="rotate(90)"/><polygon points="-2.6,-8 2.6,-8 0,-17" fill="#e9ecef" transform="rotate(120)"/><polygon points="-2.6,-8 2.6,-8 0,-17" fill="#e9ecef" transform="rotate(150)"/><polygon points="-2.6,-8 2.6,-8 0,-17" fill="#e9ecef" transform="rotate(180)"/><polygon points="-2.6,-8 2.6,-8 0,-17" fill="#e9ecef" transform="rotate(210)"/><polygon points="-2.6,-8 2.6,-8 0,-17" fill="#e9ecef" transform="rotate(240)"/><polygon points="-2.6,-8 2.6,-8 0,-17" fill="#e9ecef" transform="rotate(270)"/><polygon points="-2.6,-8 2.6,-8 0,-17" fill="#e9ecef" transform="rotate(300)"/><polygon points="-2.6,-8 2.6,-8 0,-17" fill="#e9ecef" transform="rotate(330)"/><circle r="7.5" fill="#e9ecef"/></g></svg>