<svg xmlns="http://www.w3.org/2000/svg" viewBox="0 0 1200 120" preserveAspectRatio="xMaxYMin meet"><path d="M347 0Q713 62 1080 0" stroke="#2f9e44" stroke-width="2.4" fill="none"/><g transform="translate(380.9 15.4) scale(0.8)" opacity="0.9"><rect x="-2" y="-18" width="4" height="4" fill="#f4c542"/><circle r="10" fill="#c92a2a"/><circle cx="-3.5" cy="-3.5" r="2.6" fill="#fff" fill-opacity=".45"/></g><g transform="translate(447.5 24.6) scale(0.8)" opacity="0.9"><rect x="-2" y="-18" width="4" height="4" fill="#f4c542"/><circle r="10" fill="#2f9e44"/><circle cx="-3.5" cy="-3.5" r="2.6" fill="#fff" fill-opacity=".45"/></g><g transform="translate(514.1 31.8) scale(0.8)" opacity="0.9"><rect x="-2" y="-18" width="4" height="4" fill="#f4c542"/><circle r="10" fill="#ffd43b"/><circle cx="-3.5" cy="-3.5" r="2.6" fill="#fff" fill-opacity=".45"/></g><g transform="translate(580.7 30.9)"><path d="M0 0V20" stroke="#e9ecef" stroke-width="1.4"/><rect x="0" y="2" width="22" height="15" fill="#1c4fa1"/><g transform="translate(7.5 9.5) scale(.44)"><polygon points="-2.6,-8 2.6,-8 0,-17" fill="#fff" transform="rotate(0)"/><polygon points="-2.6,-8 2.6,-8 0,-17" fill="#fff" transform="rotate(30)"/><polygon points="-2.6,-8 2.6,-8 0,-17" fill="#fff" transform="rotate(60)"/><polygon points="-2.6,-8 2.6,-8 0,-17" fill="#fff" transform="rotate(90)"/><polygon points="-2.6,-8 2.6,-8 0,-17" fill="#fff" transform="rotate(120)"/><polygon points="-2.6,-8 2.6,-8 0,-17" fill="#fff" transform="rotate(150)"/><polygon points="-2.6,-8 2.6,-8 0,-17" fill="#fff" transform="rotate(180)"/><polygon points="-2.6,-8 2.6,-8 0,-17" fill="#fff" transform="rotate(210)"/><polygon points="-2.6,-8 2.6,-8 0,-17" fill="#fff" transform="rotate(240)"/><polygon points="-2.6,-8 2.6,-8 0,-17" fill="#fff" transform="rotate(270)"/><polygon points="-2.6,-8 2.6,-8 0,-17" fill="#fff" transform="rotate(300)"/><polygon points="-2.6,-8 2.6,-8 0,-17" fill="#fff" transform="rotate(330)"/><circle r="7.5" fill="#fff"/></g></g><g transform="translate(647.3 40) scale(0.8)" opacity="0.9"><rect x="-2" y="-18" width="4" height="4" fill="#f4c542"/><circle r="10" fill="#2f9e44"/><circle cx="-3.5" cy="-3.5" r="2.6" fill="#fff" fill-opacity=".45"/></g><g transform="translate(713.8 41) scale(0.8)" opacity="0.9"><rect x="-2" y="-18" width="4" height="4" fill="#f4c542"/><circle r="10" fill="#ffd43b"/><circle cx="-3.5" cy="-3.5" r="2.6" fill="#fff" fill-opacity=".45"/></g><g transform="translate(780.4 40) scale(0.8)" opacity="0.9"><rect x="-2" y="-18" width="4" height="4" fill="#f4c542"/><circle r="10" fill="#c92a2a"/><circle cx="-3.5" cy="-3.5" r="2.6" fill="#fff" fill-opacity=".45"/></g><g transform="translate(847 30.9)"><path d="M0 0V20" stroke="#e9ecef" stroke-width="1.4"/><rect x="0" y="2" width="22" height="15" fill="#1c4fa1"/><g transform="translate(7.5 9.5) scale(.44)"><polygon points="-2.6,-8 2.6,-8 0,-17" fill="#fff" transform="rotate(0)"/><polygon points="-2.6,-8 2.6,-8 0,-17" fill="#fff" transform="rotate(30)"/><polygon points="-2.6,-8 2.6,-8 0,-17" fill="#fff" transform="rotate(60)"/><polygon points="-2.6,-8 2.6,-8 0,-17" fill="#fff" transform="rotate(90)"/><polygon points="-2.6,-8 2.6,-8 0,-17" fill="#fff" transform="rotate(120)"/><polygon points="-2.6,-8 2.6,-8 0,-17" fill="#fff" transform="rotate(150)"/><polygon points="-2.6,-8 2.6,-8 0,-17" fill="#fff" transform="rotate(180)"/><polygon points="-2.6,-8 2.6,-8 0,-17" fill="#fff" transform="rotate(210)"/><polygon points="-2.6,-8 2.6,-8 0,-17" fill="#fff" transform="rotate(240)"/><polygon points="-2.6,-8 2.6,-8 0,-17" fill="#fff" transform="rotate(270)"/><polygon points="-2.6,-8 2.6,-8 0,-17" fill="#fff" transform="rotate(300)"/><polygon points="-2.6,-8 2.6,-8 0,-17" fill="#fff" transform="rotate(330)"/><circle r="7.5" fill="#fff"/></g></g><g transform="translate(913.6 31.8) scale(0.8)" opacity="0.9"><rect x="-2" y="-18" width="4" height="4" fill="#f4c542"/><circle r="10" fill="#ffd43b"/><circle cx="-3.5" cy="-3.5" r="2.6" fill="#fff" fill-opacity=".45"/></g><g transform="translate(980.1 24.6) scale(0.8)" opacity="0.9"><rect x="-2" y="-18" width="4" height="4" fill="#f4c542"/><circle r="10" fill="#c92a2a"/><circle cx="-3.5" cy="-3.5" r="2.6" fill="#fff" fill-opacity=".45"/></g><g transform="translate(1046.7 15.4) scale(0.8)" opacity="0.9"><rect x="-2" y="-18" width="4" height="4" fill="#f4c542"/><circle r="10" fill="#2f9e44"/><circle cx="-3.5" cy="-3.5" r="2.6" fill="#fff" fill-opacity=".45"/></g><line x1="1000" y1="0" x2="1000" y2="26" stroke="#e9c46a" stroke-width="1.6" stroke-opacity=".85"/><g transform="translate(1000 41.6) scale(1.2)"><g stroke="#dbe4ff" stroke-width="2" stroke-linecap="round"><line x1="0" y1="-13" x2="0" y2="13" transform="rotate(0)"/><line x1="0" y1="-13" x2="0" y2="13" transform="rotate(60)"/><line x1="0" y1="-13" x2="0" y2="13" transform="rotate(120)"/></g></g><line x1="700" y1="0" x2="700" y2="34" stroke="#e9c46a" stroke-width="1.6" stroke-opacity=".85"/><g transform="translate(700 49.6) scale(1.2)"><g stroke="#dbe4ff" stroke-width="2" stroke-linecap="round"><line x1="0" y1="-13" x2="0" y2="13" transform="rotate(0)"/><line x1="0" y1="-13" x2="0" y2="13" transform="rotate(60)"/><line x1="0" y1="-13" x2="0" y2="13" transform="rotate(120)"/></g></g></svg>